<?xml version="1.0" encoding="utf-8"?>
<!-- Generator: Adobe Illustrator 16.0.0, SVG Export Plug-In . SVG Version: 6.00 Build 0)  -->
<!DOCTYPE svg PUBLIC "-//W3C//DTD SVG 1.1//EN" "http://www.w3.org/Graphics/SVG/1.1/DTD/svg11.dtd">
<svg version="1.1" id="Layer_1" xmlns="http://www.w3.org/2000/svg" xmlns:xlink="http://www.w3.org/1999/xlink" x="0px" y="0px"
	 width="350.667px" height="71.999px" viewBox="0 0 350.667 71.999" enable-background="new 0 0 350.667 71.999"
	 xml:space="preserve">
<g>
	<path fill-rule="evenodd" clip-rule="evenodd" fill="#150A06" d="M349.08,26.392c-1.01,0.756-2.079,1.445-3.02,2.28
		c-14.146,12.557-30.252,21.136-49.177,23.619c-16.319,2.141-32.22,1.131-46.837-7.626c-15.205-9.109-30.359-18.312-45.73-27.134
		c-8.755-5.024-17.957-9.246-28.103-10.771c-11.841-1.779-23.335,0.522-34.696,3.417C122.895,14.922,105.95,23.7,88.969,32.406
		c-10.062,5.159-20.145,10.359-30.576,14.675c-5.198,2.151-11.182,3.133-16.844,3.271c-10.228,0.249-16.507-8.023-14.575-18.066
		c1.729-8.984,7.657-15.48,15.851-16.946c5.769-1.032,10.75,0.622,14.418,5.405c2.387,3.112,2.241,4.405-1.026,6.594
		c-2.57,1.722-4.459,3.593-3.301,6.962c1.441,4.191,6.604,5.396,10.36,2.449c5.451-4.276,7.403-11.858,4.695-18.707
		C64.329,8.833,57.046,3.853,47.762,1.985C31.807-1.224,18.62,4.302,8.118,16.257c-6.221,7.082-6.543,16.041-5.995,24.867
		c0.886,14.284,13.317,26.222,27.694,27.27c10.559,0.77,20.347-2.06,29.575-6.6c13.898-6.837,27.541-14.198,41.246-21.424
		c15.914-8.393,32.034-16.15,49.677-20.453c14.763-3.6,28.851-2.563,42.335,4.423c13.982,7.245,27.729,14.952,41.781,22.054
		c8.422,4.256,16.914,8.968,25.936,11.319c19.247,5.015,38.153,1.93,56.237-5.992c11.267-4.936,21.442-11.601,30.036-20.504
		c1.176-1.218,2.17-2.611,3.248-3.922C349.619,26.995,349.349,26.693,349.08,26.392z"/>
</g>
</svg>
