<?xml version="1.0" encoding="utf-8"?>
<!-- Generator: Adobe Illustrator 16.0.0, SVG Export Plug-In . SVG Version: 6.00 Build 0)  -->
<!DOCTYPE svg PUBLIC "-//W3C//DTD SVG 1.1//EN" "http://www.w3.org/Graphics/SVG/1.1/DTD/svg11.dtd">
<svg version="1.1" id="Layer_1" xmlns="http://www.w3.org/2000/svg" xmlns:xlink="http://www.w3.org/1999/xlink" x="0px" y="0px"
	 width="350.667px" height="71.999px" viewBox="0 0 350.667 71.999" enable-background="new 0 0 350.667 71.999"
	 xml:space="preserve">
<g>
	<path fill-rule="evenodd" clip-rule="evenodd" fill="#150A06" d="M2.748,26.392c1.01,0.756,2.079,1.445,3.02,2.28
		c14.146,12.557,30.252,21.136,49.177,23.619c16.319,2.141,32.22,1.131,46.837-7.626c15.205-9.109,30.359-18.312,45.73-27.134
		c8.755-5.024,17.957-9.246,28.103-10.771c11.841-1.779,23.335,0.522,34.696,3.417c18.622,4.745,35.567,13.522,52.548,22.229
		c10.062,5.159,20.145,10.359,30.576,14.675c5.198,2.151,11.182,3.133,16.844,3.271c10.228,0.249,16.507-8.023,14.575-18.066
		c-1.729-8.984-7.657-15.48-15.851-16.946c-5.769-1.032-10.75,0.622-14.418,5.405c-2.387,3.112-2.241,4.405,1.026,6.594
		c2.57,1.722,4.459,3.593,3.301,6.962c-1.441,4.191-6.604,5.396-10.36,2.449c-5.451-4.276-7.403-11.858-4.695-18.707
		c3.643-9.209,10.925-14.189,20.209-16.057c15.955-3.209,29.143,2.317,39.645,14.272c6.221,7.082,6.543,16.041,5.995,24.867
		c-0.886,14.284-13.317,26.222-27.694,27.27c-10.559,0.77-20.347-2.06-29.575-6.6c-13.898-6.837-27.541-14.198-41.246-21.424
		c-15.914-8.393-32.034-16.15-49.677-20.453c-14.763-3.6-28.851-2.563-42.335,4.423c-13.982,7.245-27.729,14.952-41.781,22.054
		c-8.422,4.256-16.914,8.968-25.936,11.319c-19.247,5.015-38.153,1.93-56.237-5.992C23.957,46.786,13.781,40.122,5.187,31.218
		C4.011,30,3.017,28.607,1.939,27.295C2.208,26.995,2.478,26.693,2.748,26.392z"/>
</g>
</svg>
