<?xml version="1.0" encoding="utf-8"?>
<!-- Generator: Adobe Illustrator 16.0.0, SVG Export Plug-In . SVG Version: 6.00 Build 0)  -->
<!DOCTYPE svg PUBLIC "-//W3C//DTD SVG 1.1//EN" "http://www.w3.org/Graphics/SVG/1.1/DTD/svg11.dtd">
<svg version="1.1" id="Layer_1" xmlns="http://www.w3.org/2000/svg" xmlns:xlink="http://www.w3.org/1999/xlink" x="0px" y="0px"
	 width="28px" height="29px" viewBox="0 0 28 29" enable-background="new 0 0 28 29" xml:space="preserve">
<g>
	<path fill-rule="evenodd" clip-rule="evenodd" fill="#FFFFFF" d="M27.147,13.213c-0.505,3.417-2.317,5.892-5.422,7.385
		c-1.647,0.793-3.405,1.017-5.222,0.771c-1.418-0.19-3.151-0.868-4.348-1.651c-0.028-0.02-0.168-0.188-0.364,0.076
		c-0.198,0.268-0.164,0.61-0.208,0.584c-0.143,0.728-0.811,1.426-1.282,1.899c-1.466,1.473-2.942,2.934-4.402,4.411
		c-0.429,0.433-0.877,0.808-1.493,0.926c-0.173,0-0.347,0-0.52,0c-0.536-0.121-1.03-0.335-1.333-0.811
		c-0.182-0.285-0.28-0.623-0.415-0.938c0-0.173,0-0.347,0-0.52c0.121-0.624,0.506-1.074,0.943-1.508
		c1.611-1.595,3.211-3.2,4.809-4.807c0.339-0.341,0.699-0.634,1.193-0.739c0.375-0.125,1.025-0.162,0.958-0.624
		C10,17.379,9.437,16.447,9.373,16.324c-0.912-1.773-1.232-3.654-0.951-5.626c0.391-2.739,1.741-4.906,4.003-6.487
		c1.394-0.975,2.959-1.509,4.661-1.628c0.061-0.004,0.121-0.023,0.183-0.036c0.331,0,0.661,0,0.992,0
		c0.249,0.03,0.498,0.056,0.745,0.092c2.995,0.44,5.303,1.931,6.884,4.52c0.784,1.283,1.211,2.683,1.313,4.183
		c0.004,0.061,0.023,0.122,0.036,0.182c0,0.315,0,0.63,0,0.945C27.208,12.717,27.184,12.966,27.147,13.213z M17.767,19.075
		c3.878,0.021,7.056-3.151,7.067-7.056c0.012-3.896-3.143-7.058-7.049-7.068c-3.892-0.009-7.055,3.142-7.075,7.049
		C10.69,15.874,13.861,19.053,17.767,19.075z"/>
</g>
<text transform="matrix(1 0 0 1 14.251 15.999)" fill="#FFFFFF" font-family="'Arial-BoldMT'" font-size="12">+</text>
</svg>
